<svg data-v-0dd9719b="" version="1.0" xmlns="http://www.w3.org/2000/svg" xmlns:xlink="http://www.w3.org/1999/xlink" width="100%" height="100%" viewBox="0 0 340.000000 250.000000" preserveAspectRatio="xMidYMid meet" color-interpolation-filters="sRGB" style="margin: auto;"> <rect data-v-0dd9719b="" x="0" y="0" width="100%" height="100%" fill="#fff" fill-opacity="1" class="background"></rect> <rect data-v-0dd9719b="" x="0" y="0" width="100%" height="100%" fill="url(#watermark)" fill-opacity="1" class="watermarklayer"></rect> <g data-v-0dd9719b="" fill="#333" class="icon-text-wrapper icon-svg-group iconsvg" transform="translate(52.7449951171875,89.65806579655681)"><g class="iconsvg-imagesvg" transform="translate(0,0)"><g><rect fill="#333" fill-opacity="0" stroke-width="2" x="0" y="0" width="60.00000000000001" height="70.6838664074925" class="image-rect"></rect> <svg x="0" y="0" width="60.00000000000001" height="70.6838664074925" filtersec="colorsb1994534803" class="image-svg-svg primary" style="overflow: visible;"><svg xmlns="http://www.w3.org/2000/svg" viewBox="0.0060856579802930355 0.007880009710788727 84.87368774414062 99.9869384765625"><title>资源 137</title><path d="M68.71 15.84a54.92 54.92 0 0 0-.45-7.08A42.69 42.69 0 0 0 39.56.1h-.63a40.29 40.29 0 0 0-6.42 1h-.14a41.39 41.39 0 0 0-11.12 4.56h-.05a43 43 0 0 0-8.71 6.73 42.51 42.51 0 0 0-9.84 44.85v.13a41.91 41.91 0 0 0 1.8 4.12 2.25 2.25 0 0 1 .12.21 1.17 1.17 0 0 1 0 .11 41.92 41.92 0 0 0 6.05 8.83H11c1 .06 1.88.08 2.79.08a55 55 0 0 0 54.92-54.88z" fill="#333"></path><path d="M21.74 81.78l16.55 16.55.35.32.12.09a6 6 0 0 0 7.82-.41l25.87-25.86a42.42 42.42 0 0 0 11.86-36.93 72.67 72.67 0 0 1-11.55 19.72 72.91 72.91 0 0 1-51.02 26.52z" fill="#1555c8"></path></svg></svg> <!----></g></g> <g transform="translate(67,13.401935577392578)"><g data-gra="path-name" fill-rule="" class="tp-name iconsvg-namesvg"><g transform="scale(1)"><g><path d="M0.26 0L15.02-21.91 0.78-43.36 12.09-43.36 20.61-29.05 29.84-43.36 41.02-43.36 26.32-21.91 41.02 0 30.16 0 20.61-14.88 11.25 0 0.26 0ZM64.87-43.62L64.87-43.62Q71.37-43.62 76.31-41.41L76.31-41.41Q82.09-38.74 84.44-32.5L84.44-32.5Q86.25-27.63 86.25-21.06L86.25-21.06Q86.25-14.43 84.05-9.55L84.05-9.55Q81.25-3.77 75.47-1.43L75.47-1.43Q71.17 0.26 65.59 0.26L65.59 0.26Q58.24 0.26 52.84-2.47L52.84-2.47Q48.3-4.75 45.89-9.62 43.48-14.5 43.48-21.45L43.48-21.45Q43.48-33.87 49.66-39.13L49.66-39.13Q54.86-43.55 64.87-43.62ZM64.94-36.34L64.94-36.34Q58.56-36.34 55.84-32.18L55.84-32.18Q53.63-28.93 53.63-21.71L53.63-21.71Q53.63-14.11 56.36-10.53L56.36-10.53Q59.09-7.02 65-7.02L65-7.02Q70.72-7.02 73.42-10.6 76.12-14.17 76.12-21.64L76.12-21.64Q76.12-28.47 73.91-32.05L73.91-32.05Q71.37-36.27 64.94-36.34ZM92.24-18.98L92.24-43.36 101.4-43.36 101.4-18.98Q101.6-14.37 101.79-12.87L101.79-12.87Q102.25-9.88 104.65-8.81 107.06-7.74 113.1-7.74L113.1-7.74 121.94-7.74 121.94 0 112.13 0Q105.17 0 102.05-0.78L102.05-0.78Q94.9-2.86 92.95-9.88L92.95-9.88Q92.24-12.61 92.24-18.98L92.24-18.98ZM146.38-43.62L146.38-43.62Q152.88-43.62 157.82-41.41L157.82-41.41Q163.61-38.74 165.94-32.5L165.94-32.5Q167.77-27.63 167.77-21.06L167.77-21.06Q167.77-14.43 165.56-9.55L165.56-9.55Q162.76-3.77 156.98-1.43L156.98-1.43Q152.69 0.26 147.09 0.26L147.09 0.26Q139.75 0.26 134.36-2.47L134.36-2.47Q129.81-4.75 127.4-9.62 125-14.5 125-21.45L125-21.45Q125-33.87 131.17-39.13L131.17-39.13Q136.37-43.55 146.38-43.62ZM146.44-36.34L146.44-36.34Q140.08-36.34 137.34-32.18L137.34-32.18Q135.14-28.93 135.14-21.71L135.14-21.71Q135.14-14.11 137.87-10.53L137.87-10.53Q140.59-7.02 146.51-7.02L146.51-7.02Q152.23-7.02 154.93-10.6 157.63-14.17 157.63-21.64L157.63-21.64Q157.63-28.47 155.42-32.05L155.42-32.05Q152.88-36.27 146.44-36.34Z" transform="translate(-0.25999999046325684, 43.619998931884766)"></path></g> <!----> <!----> <!----> <!----> <!----> <!----> <!----></g></g> <!----></g></g><defs v-gra="od"></defs></svg>